<svg id="visual" viewBox="0 0 960 540" width="960" height="540" xmlns="http://www.w3.org/2000/svg" xmlns:xlink="http://www.w3.org/1999/xlink" version="1.1"><path d="M0 34L17.8 35.5C35.7 37 71.3 40 106.8 42C142.3 44 177.7 45 213.2 58.7C248.7 72.3 284.3 98.7 320 97C355.7 95.3 391.3 65.7 426.8 55.5C462.3 45.3 497.7 54.7 533.2 71.5C568.7 88.3 604.3 112.7 640 113.2C675.7 113.7 711.3 90.3 746.8 96.5C782.3 102.7 817.7 138.3 853.2 146C888.7 153.7 924.3 133.3 942.2 123.2L960 113L960 0L942.2 0C924.3 0 888.7 0 853.2 0C817.7 0 782.3 0 746.8 0C711.3 0 675.7 0 640 0C604.3 0 568.7 0 533.2 0C497.7 0 462.3 0 426.8 0C391.3 0 355.7 0 320 0C284.3 0 248.7 0 213.2 0C177.7 0 142.3 0 106.8 0C71.3 0 35.7 0 17.8 0L0 0Z" fill="#f54f33"></path></svg>