<?xml version="1.0" standalone="no"?>
<svg xmlns:xlink="http://www.w3.org/1999/xlink"  id="wave" style="transform:rotate(0deg); transition: 0.3s" viewBox="0 0 1440 100" version="1.1" xmlns="http://www.w3.org/2000/svg"><defs><linearGradient id="sw-gradient-0" x1="0" x2="0" y1="1" y2="0"><stop stop-color="rgba(245, 79, 51, 1)" offset="0%"/><stop stop-color="rgba(245, 79, 51, 1)" offset="100%"/></linearGradient></defs><path style="transform:translate(0, 0px); opacity:1" fill="url(#sw-gradient-0)" d="M0,70L40,70C80,70,160,70,240,65C320,60,400,50,480,41.7C560,33,640,27,720,25C800,23,880,27,960,35C1040,43,1120,57,1200,58.3C1280,60,1360,50,1440,41.7C1520,33,1600,27,1680,25C1760,23,1840,27,1920,38.3C2000,50,2080,70,2160,73.3C2240,77,2320,63,2400,53.3C2480,43,2560,37,2640,30C2720,23,2800,17,2880,23.3C2960,30,3040,50,3120,51.7C3200,53,3280,37,3360,38.3C3440,40,3520,60,3600,68.3C3680,77,3760,73,3840,70C3920,67,4000,63,4080,53.3C4160,43,4240,27,4320,20C4400,13,4480,17,4560,15C4640,13,4720,7,4800,16.7C4880,27,4960,53,5040,53.3C5120,53,5200,27,5280,21.7C5360,17,5440,33,5520,40C5600,47,5680,43,5720,41.7L5760,40L5760,100L5720,100C5680,100,5600,100,5520,100C5440,100,5360,100,5280,100C5200,100,5120,100,5040,100C4960,100,4880,100,4800,100C4720,100,4640,100,4560,100C4480,100,4400,100,4320,100C4240,100,4160,100,4080,100C4000,100,3920,100,3840,100C3760,100,3680,100,3600,100C3520,100,3440,100,3360,100C3280,100,3200,100,3120,100C3040,100,2960,100,2880,100C2800,100,2720,100,2640,100C2560,100,2480,100,2400,100C2320,100,2240,100,2160,100C2080,100,2000,100,1920,100C1840,100,1760,100,1680,100C1600,100,1520,100,1440,100C1360,100,1280,100,1200,100C1120,100,1040,100,960,100C880,100,800,100,720,100C640,100,560,100,480,100C400,100,320,100,240,100C160,100,80,100,40,100L0,100Z"/></svg>
