<?xml version="1.0" standalone="no"?>
<svg xmlns:xlink="http://www.w3.org/1999/xlink" id="wave" style="transform:rotate(180deg); transition: 0.3s" viewBox="0 0 1440 100" version="1.1" xmlns="http://www.w3.org/2000/svg"><defs><linearGradient id="sw-gradient-0" x1="0" x2="0" y1="1" y2="0"><stop stop-color="rgba(245, 79, 51, 1)" offset="0%"/><stop stop-color="rgba(245, 79, 51, 1)" offset="100%"/></linearGradient></defs><path style="transform:translate(0, 0px); opacity:1" fill="url(#sw-gradient-0)" d="M0,50L40,56.7C80,63,160,77,240,81.7C320,87,400,83,480,73.3C560,63,640,47,720,43.3C800,40,880,50,960,60C1040,70,1120,80,1200,76.7C1280,73,1360,57,1440,51.7C1520,47,1600,53,1680,50C1760,47,1840,33,1920,25C2000,17,2080,13,2160,15C2240,17,2320,23,2400,35C2480,47,2560,63,2640,61.7C2720,60,2800,40,2880,31.7C2960,23,3040,27,3120,38.3C3200,50,3280,70,3360,75C3440,80,3520,70,3600,55C3680,40,3760,20,3840,13.3C3920,7,4000,13,4080,15C4160,17,4240,13,4320,16.7C4400,20,4480,30,4560,43.3C4640,57,4720,73,4800,76.7C4880,80,4960,70,5040,60C5120,50,5200,40,5280,35C5360,30,5440,30,5520,33.3C5600,37,5680,43,5720,46.7L5760,50L5760,100L5720,100C5680,100,5600,100,5520,100C5440,100,5360,100,5280,100C5200,100,5120,100,5040,100C4960,100,4880,100,4800,100C4720,100,4640,100,4560,100C4480,100,4400,100,4320,100C4240,100,4160,100,4080,100C4000,100,3920,100,3840,100C3760,100,3680,100,3600,100C3520,100,3440,100,3360,100C3280,100,3200,100,3120,100C3040,100,2960,100,2880,100C2800,100,2720,100,2640,100C2560,100,2480,100,2400,100C2320,100,2240,100,2160,100C2080,100,2000,100,1920,100C1840,100,1760,100,1680,100C1600,100,1520,100,1440,100C1360,100,1280,100,1200,100C1120,100,1040,100,960,100C880,100,800,100,720,100C640,100,560,100,480,100C400,100,320,100,240,100C160,100,80,100,40,100L0,100Z"/></svg>