<?xml version="1.0" standalone="no"?>
<svg xmlns:xlink="http://www.w3.org/1999/xlink" id="wave" style="transform:rotate(0deg); transition: 0.3s" viewBox="0 0 1440 100" version="1.1" xmlns="http://www.w3.org/2000/svg"><defs><linearGradient id="sw-gradient-0" x1="0" x2="0" y1="1" y2="0"><stop stop-color="rgba(245, 79, 51, 1)" offset="0%"/><stop stop-color="rgba(245, 79, 51, 1)" offset="100%"/></linearGradient></defs><path style="transform:translate(0, 0px); opacity:1" fill="url(#sw-gradient-0)" d="M0,40L40,35C80,30,160,20,240,28.3C320,37,400,63,480,71.7C560,80,640,70,720,56.7C800,43,880,27,960,30C1040,33,1120,57,1200,60C1280,63,1360,47,1440,45C1520,43,1600,57,1680,61.7C1760,67,1840,63,1920,63.3C2000,63,2080,67,2160,56.7C2240,47,2320,23,2400,15C2480,7,2560,13,2640,13.3C2720,13,2800,7,2880,6.7C2960,7,3040,13,3120,16.7C3200,20,3280,20,3360,26.7C3440,33,3520,47,3600,46.7C3680,47,3760,33,3840,23.3C3920,13,4000,7,4080,5C4160,3,4240,7,4320,10C4400,13,4480,17,4560,20C4640,23,4720,27,4800,35C4880,43,4960,57,5040,65C5120,73,5200,77,5280,68.3C5360,60,5440,40,5520,40C5600,40,5680,60,5720,70L5760,80L5760,100L5720,100C5680,100,5600,100,5520,100C5440,100,5360,100,5280,100C5200,100,5120,100,5040,100C4960,100,4880,100,4800,100C4720,100,4640,100,4560,100C4480,100,4400,100,4320,100C4240,100,4160,100,4080,100C4000,100,3920,100,3840,100C3760,100,3680,100,3600,100C3520,100,3440,100,3360,100C3280,100,3200,100,3120,100C3040,100,2960,100,2880,100C2800,100,2720,100,2640,100C2560,100,2480,100,2400,100C2320,100,2240,100,2160,100C2080,100,2000,100,1920,100C1840,100,1760,100,1680,100C1600,100,1520,100,1440,100C1360,100,1280,100,1200,100C1120,100,1040,100,960,100C880,100,800,100,720,100C640,100,560,100,480,100C400,100,320,100,240,100C160,100,80,100,40,100L0,100Z"/></svg>